<?xml version="1.0" encoding="UTF-8"?>
<svg id="chronicle" xmlns="http://www.w3.org/2000/svg" viewBox="0 0 1920 346.3">
  <defs>
    <style>
      .cls-1 {
        fill: #fff;
      }
    </style>
  </defs>
  <path d="M0,198.81c5.49-11.19,6.22-25.02,10.07-37.16,16.9-53.2,63.6-97.92,115.56-116.88,49.32-18,151.49-23.48,184,26.73,11.91,18.4,17.64,54.09,14.27,75.49-1.87,11.89-21.27,7.67-30.63,8.36-19.44,1.44-38.9,3.18-58.36,4.37l-5.46-2.38c-.6-9.73,2.26-18.21,1.37-28.06-4.24-46.68-63.78-42.34-90.55-17.41-29.06,27.07-62.52,126.99-31.57,158.96,20.8,21.48,69.75,10.2,89.35-9.75,5.82-5.92,21.21-32.35,25.02-33.47,4.18-1.23,17.01-.53,22.25-.37,14.82.46,33.15,1.61,47.93,3.06,16.66,1.64,8.26,15.17,3.07,25.55-16.15,32.29-47.84,60.76-80.81,75.15-58.27,25.44-168.2,23.4-202.79-39.21l-12.72-28.51v-64.47Z"/>
  <path d="M1920,170.32v65.97c-1.36,2.78-7,6-9.75,6h-160.5c-19.55,51.15,36.34,66.05,71.27,38.25,5.58-4.44,15.55-18.83,20.56-19.95,21.65,2.67,46.11-.48,66.59,6.34,2.76,3.03-1.49,7.84-3.13,10.63-59.89,101.75-278.58,94.01-242.6-50.57,11.19-44.96,50.25-89.02,93.04-106.41,54.33-22.07,146.14-17.8,164.52,49.74ZM1845,197.31c10.69-42.99-40.99-48.13-67.37-27.61-7.25,5.64-17.83,18.14-18.13,27.61h85.5Z"/>
  <path d="M665.25,116.35c7.01,1.98,1.91,13.3,1.06,17.57-.36,1.84-1.01,4.63,1.92,3.41,2.2-.92,10.14-10.5,13.78-13.22,15.43-11.57,40.05-18.45,58.78-13.53,3.85,6.17-13.52,56.45-13.27,67.25,9.54-9.29,16.96-20.32,26.96-29.26,82.01-73.27,246.25-46.69,209.28,90.74-22.22,82.61-109.88,120.39-189.81,102.74-61.73-13.63-77.27-70.89-62.19-126.73,3.54-13.1,10.62-23.25,14.23-35.99-8.3,2.49-17.39,1.63-25.86,3.38-54.77,11.29-55.82,75.62-66.36,119.58-1.46,6.07-8.06,36.62-10.51,38.97s-9.88,2.79-13.45,3.05c-15.04,1.09-40.72,1.28-55.62-.01-7.9-.68-15.21-.92-12.32-10.9l48.02-209.89c.05-1.82,3.86-7.14,4.86-7.14h70.5ZM800.03,289.74c3.47,3.65,11.83,7.23,16.85,7.89,35.94,4.7,52.11-32.36,60.2-61.02,6.39-22.64,20.08-72.93-15.32-76.79-40.91-4.46-53.54,24.94-63,58.48-5.54,19.65-14.44,54.91,1.27,71.44Z"/>
  <path d="M438.75,39.89l2.26,3.76c-3.66,30.73-16.08,60.01-21,90.69,1.09,1.15,21.83-14.04,25.42-15.8,39.6-19.44,114.79-18.7,118.54,39.07-5.96,60.65-26.06,119.65-37.87,179.48-1.1,6.96-9.45,6.79-15.28,7.21-15.3,1.12-43.57,1.46-58.56-.07-2.75-.28-8.61-1.16-9.57-3.96l32.86-152.77c-.72-13.02-5.74-18.99-18.73-20.23-48.92-4.67-52.26,35.96-61.29,72.29-8.33,33.53-13.93,67.76-23.44,101-2.15,2.46-6.68,3.32-9.83,3.67-14.74,1.64-43.34,1.1-58.56.07-3.31-.22-11.27-.43-12.51-4.03-1.41-4.11,3.81-23.2,5.05-29.04,18.98-89.44,42.49-178.21,62.47-267.39.54-.94,3.08-3.95,3.55-3.95h76.5Z"/>
  <path d="M1074.01,143.33c2.59.67,3-1.06,4.51-2.23,22.83-17.66,35.37-28.99,66.68-30.81,48.84-2.84,82,14.76,77.12,68.08l-36.55,162.86c-1.73,2.04-9.04,2.8-11.95,3.05-15.34,1.32-43.23,1.27-58.61,0-9.21-.76-13.16-2-10.81-12.42l32.66-141.38c-4.01-36.95-47.72-22.85-63.66-2.04-21.67,28.28-26.31,109.82-38.78,147.14-1.44,4.32-2.85,6.25-7.35,7.65-8.03,2.49-51.66,1.96-62.06,1.05-3.84-.34-7.57-1.04-11.22-2.27l-1.55-3.06,51.85-227.07c1.97-2.4,7.39-2.84,10.41-3.09,8.71-.72,54.96-1.09,60.41,1.19,1.32.55,2.48,1.63,3.56,2.56l-4.65,30.78Z"/>
  <path d="M1466.69,109.3c51.54-2.87,106.29,14.94,111.11,73.96.43,5.31,2.02,14.56-3.9,16.7l-68.61,4.8c-7.95-1.53-4.41-9.99-5.45-15.54-3.42-18.37-13.39-26.01-32.14-24.95-36.79,2.07-52.36,41.12-58.2,72.26-3.35,17.83-7.36,42.68,15.42,48.56,21.87,5.64,38.28-1.71,52.54-18.12,5.76-6.63,9.19-17.94,18.76-18.72l62.04,4.02c10.82,2.43-.78,21.65-4.55,27.94-59.3,98.92-278.07,93.57-231.1-63.07,20.23-67.47,74.94-104,144.09-107.86Z"/>
  <path d="M1625.62,40.26c8.56-1.59,60.24-1.79,68.3-.04,1.49.33,2.88.99,4.11,1.87l1.53,3.09-66.28,295.08c-1.95,3.24-8.7,3.7-12.47,4.03-12.87,1.11-49.38,1.72-61.18-.42s-6.55-11.87-4.89-20.63c16.15-85.19,38.38-181.08,60.29-265.08,2.12-8.15,1.28-16.16,10.6-17.89Z"/>
  <path d="M1256.25,116.35h75c.89,0,3.51,3.41,3.62,5.14.24,3.82-4,18.14-5.1,23.37-13.85,65.65-31.22,131.14-46.58,196.32-.62.75-3.92,3.06-4.44,3.06h-73.5c-.57,0-3.14-2.97-3.47-4.08l49.3-215.48,5.17-8.33Z"/>
  <path d="M1272.75,39.89h75c.54,0,3.19,3,3.5,4.09.75,2.61-8.51,45.19-10.33,50.55-2.01,5.93-2.95,7.57-9.64,8.35-14.85,1.73-49.39,1.4-64.6.04-4.73-.42-9.93-.82-9.76-6.74,5.19-14.97,5.76-36.12,11.31-50.33.96-2.47,2.56-4.27,4.53-5.97Z"/>
  <path d="M547.5,25.65l-2.29,2.24c-8.1.45-6.1-8.72-9.03-13.41-3.5-5.61-12.93-5.42-18.74-3.88l-20.5,64.78c-.65,7.58,11.28,4.98,10.06,10.22-1.35,5.82-35.84,4.41-37.28,2.06-1.19-10.61,7.63-2.9,13.57-15.26,4.64-9.67,14.85-42.58,17.04-53.43.62-3.04.97-5.98.69-9.08-7.88-.04-14.34-1.14-21.06,3.7-5.59,4.03-6.67,12.96-14.93,11.29-2.32-2.31,6.01-23.89,10.41-24.89,21.32,3.42,46.04-1.61,66.91.83,2.18.26,3.86.19,5.17,2.33v22.49Z"/>
  <path d="M580.5,45.88c-5.95-5.8-22.11,16.65-24.59,21.16-2.33,4.24-6.21,17.39-9.04,19.44-5.2,3.77-12.42,1.03-8.85-5.81l25.72-65.91c2.71-5.41-5.27-6.8-5.73-8.62-1.56-6.2,18.88-8.24,20.78-1.15l-11.74,31.17c3.25,3.85,7.47-1.97,12.73-2.36,25.91-1.91,7.12,46.85-6.27,55.3-9.81,6.19-19.35,2.66-14.09-9.61l9.85.93c6.51-.47,12.77-28.22,11.24-34.55Z"/>
  <path d="M625.12,34.21c18.39-3.57,15.53,16.51,3.31,24.35-8.23,5.29-22.18,2.66-19.45,16.55,2.2,11.15,16.2-2.77,18.74-2.24,7.79,1.61-4.39,12.55-8.21,14.26-20.96,9.37-26.17-7.18-20.22-24.71,2.99-8.8,16.54-26.41,25.82-28.21ZM625.49,44.4c-4.07-1.91-12.85,8.07-10.48,10.48,6.35.14,11.69-3.78,10.48-10.48Z"/>
  <path class="cls-1" d="M1845,197.31h-85.5c.3-9.47,10.88-21.97,18.13-27.61,26.38-20.52,78.06-15.38,67.37,27.61Z"/>
  <path class="cls-1" d="M800.03,289.74c-15.71-16.53-6.82-51.79-1.27-71.44,9.46-33.54,22.09-62.93,63-58.48,35.4,3.86,21.71,54.15,15.32,76.79-8.09,28.65-24.26,65.71-60.2,61.02-5.01-.66-13.38-4.24-16.85-7.89Z"/>
  <path class="cls-1" d="M625.49,44.4c1.2,6.7-4.13,10.62-10.48,10.48-2.36-2.41,6.42-12.39,10.48-10.48Z"/>
</svg>