<?xml version="1.0" encoding="UTF-8"?>
<svg id="HLN" xmlns="http://www.w3.org/2000/svg" viewBox="0 0 557.48 184.8">
  <defs>
    <style>
      .cls-1 {
        fill: #fff;
      }
    </style>
  </defs>
  <polygon points="80.93 6.99 80.93 120.89 68.94 120.89 68.94 73.93 12.99 73.93 12.99 120.89 1 120.89 1 34.97 12.99 34.97 12.99 70.93 68.94 70.93 68.94 9.99 80.93 6.99"/>
  <path d="M239.78,6.99v57.95l6.08-6.41c11.22-9.39,31.89-9.65,40.07,3.72.92,1.5,3.8,7.92,3.8,9.18v60.44h-11.99v-62.44c0-.34-2.31-5.44-2.79-6.2-6.67-10.65-21.52-7.82-29.71-.32-.93.85-5.47,6.09-5.47,6.52v51.45h-11.99V10.49l11.99-3.5Z"/>
  <path d="M192.82,111.9c-20.26,20.29-52.52,8.72-55.84-19.59-3.91-33.29,31.04-54.76,55.83-29.36l.11-7.89,11.89-2.1v75.43c0,.59-2.29,7.08-2.82,8.17-10.05,20.83-55.61,22.19-59.12-4.67l3.01.66c3.03,20.63,37.57,21.88,45.15,4.04.32-.75,1.79-5.85,1.79-6.21v-18.48ZM166.57,56.17c-23.53,4.81-24.21,63.25,6.61,62.34,6.18-.18,17.35-6.6,19.19-12.56,1.07-3.48,1.08-31.14.39-35.47s-7.56-11-11.24-12.74c-4.2-1.99-10.41-2.5-14.96-1.57Z"/>
  <rect y="163.85" width="339.69" height="5"/>
  <polygon points="361.67 0 361.67 117.89 407.62 117.89 407.62 120.89 349.68 120.89 349.68 2 361.67 0"/>
  <path d="M454.58,55.95h-8s0-2.99,0-2.99h8c-.45-10.21-.18-21.12,9.29-27.17,9.69-6.19,29.73-6.13,30.66,8.18l-6.62-6.85c-5-2.83-13.09-2.71-17.27,1.44-.99.99-4.08,7.01-4.08,7.91v16.48h15.99v3h-15.99v75.93h-11.99V55.95Z"/>
  <path d="M557.48,84.92h-53.45c-1.02.75-1.08.87-1.09,2.04-.07,24.52,18.47,39.44,41.87,28.76l9.66-7.81c-.41,5.62-8.48,10.46-13.29,12.17-21.55,7.64-48.31-4.66-50.63-28.67-4.61-47.77,65.77-55.03,66.93-6.48ZM545.49,81.92c.07-36.79-41.35-35.97-41.96,0h41.96Z"/>
  <path d="M118.89,52.95v58.95h-12.99v-55.45c3.44-2.64,8.69-3.4,12.99-3.5Z"/>
  <polygon points="429.6 52.95 429.6 111.9 417.61 111.9 417.61 54.95 429.6 52.95"/>
  <path d="M468.07,146.86c9.94,1.65,15.12,12.6,6,18.99-1.85,1.3-4.84,1.12-5.5,2.98,6.42.99,7.86,10.47,11.98,14.99-8.85,2.11-9.47-11.66-14.59-14.87-3.01-1.88-7.01-.91-10.38-1.11v15.99h-5v-36.97c5.36.62,12.37-.85,17.48,0ZM455.58,166.85c9.23.15,18.88,1.94,18.07-10.53-.6-9.21-10.93-8.82-18.07-8.45v18.98Z"/>
  <polygon points="530.51 146.86 530.51 164.85 552.49 164.85 552.49 146.86 557.48 146.86 557.48 183.83 552.49 183.83 552.49 165.85 530.51 165.85 530.51 183.83 526.51 183.83 526.51 146.86 530.51 146.86"/>
  <path d="M415.35,147.1c29.72-5.15,31.56,36.38,5.62,37.66-23.83,1.18-27.33-33.91-5.62-37.66ZM416.34,148.1c-15.68,3.26-14.03,36.49,4.52,35.49,19.37-1.05,18.37-40.25-4.52-35.49Z"/>
  <path d="M389.64,183.83c-1.77.26-2.19.06-3.45-1.04-5.59-4.83-14.11-18.03-19.55-24.41-1.8-2.11-4.43-6.01-6.97-6.52v31.97h-1v-36.97c3.6-.67,4.83,1.3,7.02,3.47,7.63,7.6,13.99,18.9,21.96,26.5v-34.47c0-.17,1.35-1.57,2-1.5v42.96Z"/>
  <polygon points="515.52 146.86 515.52 147.85 503.53 147.86 503.53 183.83 498.54 183.83 498.54 147.86 486.55 147.85 486.55 146.86 515.52 146.86"/>
  <path d="M109.62,26.19c13.49-3.06,14.21,15.67.86,13.73-7.51-1.09-7.46-12.24-.86-13.73Z"/>
  <path d="M420.31,26.19c13.9-4.15,13.9,17.71,0,13.56-5.87-1.75-5.89-11.8,0-13.56Z"/>
  <path class="cls-1" d="M166.57,56.17c4.55-.93,10.76-.42,14.96,1.57,3.68,1.75,10.57,8.59,11.24,12.74s.68,31.99-.39,35.47c-1.84,5.96-13.02,12.38-19.19,12.56-30.83.91-30.14-57.53-6.61-62.34Z"/>
  <path class="cls-1" d="M545.49,81.92h-41.96c.61-35.97,42.03-36.79,41.96,0Z"/>
  <path class="cls-1" d="M455.58,166.85v-18.98c7.14-.36,17.46-.76,18.07,8.45.82,12.47-8.83,10.68-18.07,10.53Z"/>
  <path class="cls-1" d="M416.34,148.1c22.89-4.76,23.89,34.44,4.52,35.49-18.55,1.01-20.2-32.23-4.52-35.49Z"/>
</svg>