<?xml version="1.0" encoding="UTF-8"?>
<svg id="METRO" xmlns="http://www.w3.org/2000/svg" xmlns:xlink="http://www.w3.org/1999/xlink" viewBox="0 0 573.39 170.14">
  <defs>
    <style>
      .cls-1 {
        fill: none;
      }

      .cls-2 {
        fill: #fff;
      }

      .cls-3 {
        clip-path: url(#clippath);
      }
    </style>
    <clipPath id="clippath">
      <rect class="cls-1" x="0" y="0" width="573.39" height="170.14"/>
    </clipPath>
  </defs>
  <path class="cls-2" d="M0,170.14h573.39V0H0v170.14ZM6.3,6.3h560.79v161.98H6.3V6.3Z"/>
  <path d="M3.16,170.14h567.07V3.14H3.16v167Z"/>
  <g class="cls-3">
    <path class="cls-2" d="M553.86,87.29c0-36.17-29.24-65.39-64.02-65.39s-64,29.22-64,65.39,29.24,65.39,64,65.39,64.02-29.24,64.02-65.39M520.65,87.29c0,16.96-13.84,31.84-30.81,31.84s-30.77-14.2-30.77-31.84,14-31.84,30.77-31.84,30.81,14.88,30.81,31.84M424.29,149.58l-23.89-53.99c10.92-7.25,16.96-17.3,16.96-30.61,0-26.48-17.12-39.98-41.87-39.98h-42.74v124.58h32.53v-51.4h.34l21.97,51.4h36.69ZM384.83,68.07c0,11.26-7.45,15.41-19.56,15.41v-30.79c12.1,0,19.56,4.15,19.56,15.39M297.97,56.49h25.46l-3.3-31.5h-76.81l-3.28,31.5h25.44v93.09h32.51V56.49ZM195.74,116.71v-12.99h25.6v-32.87h-25.6v-12.97h39.27l-5.03-32.89h-66.78v124.58h67.65l8.48-32.87h-43.58ZM118.91,149.58h33.23l-17.14-124.58h-25.94l-22.68,48.46-21.97-48.46-25.98.15-17.78,124.43h33.21l7.27-51.21h.34l24.91,52.08,24.91-52.08h.34l7.27,51.21Z"/>
  </g>
</svg>