<?xml version="1.0" encoding="UTF-8"?>
<svg id="Layer_1" data-name="Layer 1" xmlns="http://www.w3.org/2000/svg" viewBox="0 0 1199 566.32">
  <defs>
    <style>
      .cls-1 {
        fill: #fff;
      }
    </style>
  </defs>
  <path d="M1199,0v566.32H0V0h1199ZM536.82,118.72v-53.09c0-5.17,17.56.85,19.18-.73v-11.81c-16.77-.22-33.72,1.99-50.13,0l-.03,10.96c.4,3.01,16.51-4.09,19.98,2.23l-.48,52.49c.3,2.9,6.97.79,9.07,1.9l2.42-1.95ZM576.64,53.09c-4.22,2.57-7.45,1.06-11.8,0v67.84h11.8v-29.5h26.55v29.5c3.17-.18,8.91,1.27,10.12-2.42l-1.2-64.72-8.92-.7v28.02h-26.55v-28.02ZM626.78,55.3v63.42c0,4.23,9.24.62,11.13.67,3.23.08,5.99,1.54,8.78,1.55,7.46.03,15.79-2.73,24.33,0v-11.8s-32.44,0-32.44,0v-17.7h32.45v-10.32h-32.45l.16-16.07c10.53-2.92,21.61-1.75,32.28-.15v-11.81s-42.07.43-42.07.43l-2.17,1.79ZM454.23,78.16H66.37v11.8h385.66c4.19,0,3.33-8.91,2.21-11.8ZM1137.06,78.16h-407.78c-3.31,2.64-3.44,8.94,0,11.8h407.78v-11.8ZM169.6,156.33h-103.23v167.39l2.21,2.21h23.6c.49,0,2.24-1.95,3.69-1.47v-66.37h73.74v-28.02h-73.74v-45.72h71.53c.53,0,1.2,2.4,2.21.75l1.45-1.49c-.05-.56-1.45-1.01-1.45-1.47v-25.81ZM306.76,156.33h-106.92l-2.21,2.21v167.39h108.4l2.21-2.21v-27.28h-82.59v-44.24h79.64v-24.33c0-.53,2.4-1.2.75-2.21l-1.49-1.45c-.56.05-1.01,1.45-1.47,1.45h-72.26c-.56,0-5.16-3.35-5.16-3.69v-36.13c1.45.48,3.2-1.47,3.69-1.47h77.43v-28.02ZM412.2,156.33c-23.23-2.55-50.78,1.9-74.48,0v169.6h25.81l2.21-2.21v-69.31l2.21-2.21h29.5l36.13,73.74h30.97c.04-5.57-3.6-11.29-6.08-16.46-7.94-16.58-19.39-38.06-29.42-56.13-.8-1.44-2.63-.71-2.86-1.89l.07-2.16c30.62-12.54,32.81-63.83,8.85-83.46-5.56-4.55-15.84-8.72-22.92-9.5ZM597.29,156.33h-120.93v29.5c2.06.85,4.42-1.47,5.16-1.47h40.56v139.37l2.21,2.21h27.28c.39-1.08-1.47-1.76-1.47-2.21v-135.68c0-.34,4.61-3.69,5.16-3.69h38.34c.45,0,2.1,2.02,3.69,1.47v-29.5ZM648.91,156.33h-28.02v169.6h25.81l2.21-2.21v-167.39ZM712.32,296.43v-137.89l-2.21-2.21h-27.28v169.6h96.6c.49,0,2.24-1.95,3.69-1.47v-28.02h-70.79ZM833.25,156.33h-28.02c-.84,50.29.95,100.86.06,151.23-.11,6.42-4.43,12.76,2.15,18.37h25.81v-169.6ZM977.78,156.33h-120.93v28.02h45.72l2.21,141.58h25.81v-136.42c0-.56,3.35-5.16,3.69-5.16h43.51v-28.02ZM1019.08,156.33h-32.45c-.31,2.51,1.68,4.29,3.04,6.19,17.86,24.95,38.97,47.97,55.94,73.87.92,1.4,2.95.89,2.95,1.05v88.49h25.81c.49,0,2.24-1.95,3.69-1.47v-81.85c0-.5-1.51-1.92-.42-3.19l62.36-83.08h-30.23l-47.19,60.48-43.51-60.48ZM340.1,356.01c-48.54-32.69-119.97-14.9-143.03,39.41-.63,1.48-2.99,7.92-2.38,8.67,8.07-2.5,9.25-11.95,13.52-18.17,22.68-33.07,60.51-48.58,100.35-38.93,17.56,4.26,42.73,22.3,52.61,37.68,4.18,6.51,5.17,18.45,14.9,19.41-7-16.4-21.02-38-35.97-48.07ZM230.67,503.77c49.56,38.07,122.3,14.28,137.59-46.29,17.7-70.11-53.45-130.14-119.58-100.41-57.78,25.98-68.79,107.69-18.01,146.7ZM682.22,390.22c1.72-1.99,12.21-16.07,11.76-17.1-38.73-36.63-110.22-31.96-134.34,19.13-22.66,47.99-4.44,115.42,50.93,129.07,32.27,7.96,70.32-2.22,85.44-33.8l-21.32-17.16c-2.57,0-7.68,9.45-11.43,12.32-43.06,33.01-87.93-6.81-82.04-57.06,4.65-39.65,45.73-57.35,79.5-38.53,11.51,6.42,11.3,14.91,21.49,3.11ZM708.63,522.07h22.12c.76,0,4.73-.57,5.09-.78,5.96-3.61,11.65-28.21,16.14-35.17l61.86-.67c6.32,11.73,8.46,26.5,17.2,36.63h28.02l1.63-3.05-75.4-169.55c-5.12-.95-9.23,12.33-11.28,16.77-23.28,50.46-43.58,102.41-66.95,152.84l1.57,3ZM990.95,364.42c-33.23-21.41-111.7-25.36-116.38,27.15-4.22,47.3,43.59,49.52,76,62.6,3.99,1.61,13.63,5.72,14.79,10.24,4.16,16.24-4.09,28.25-20.69,29.71-22.83,2.01-45.25-3.65-65.67-13.33l-5.81,27.88c36.33,20.23,118.96,28.75,123.58-28.8,2.94-36.55-20.77-42.73-49.18-53.67-9.53-3.67-39.36-9.6-41.74-20.2-3.82-17,4.69-25.61,21.02-27.02,19.55-1.7,39.27,3.73,56.11,13.29l7.99-27.84ZM1135.58,352.47h-120.19c-.37,0-.88-1.2-1.47-1.16l-2.21,1.89v28.76h45.72v137.89l2.21,2.21h26.55l2.21-2.21v-137.89h44.98l2.21-2.21v-27.28ZM92.91,457.18h49.41c.94,0,15.06-6.94,16.87-8.21,24.76-17.3,26.11-66.32,3.75-86.15-2.17-1.92-15.93-10.35-17.67-10.35H63.42v169.6h29.5v-64.89ZM393.77,352.47c-.39,1.08,1.47,1.76,1.47,2.21v163.7c0,.37-1.2.88-1.16,1.47l1.89,2.21h63.42c73.58,0,94.32-117.25,38.99-156.97-4.52-3.24-24.03-12.63-28.66-12.63h-75.95ZM197.62,408.53c-1.94-1.74-9.4,4.5-10.89,6.05-16.26,16.93-7.9,40.09,10.88,49.98-4.34-19.26-5.9-36.82,0-56.03ZM384.29,455.14c12.27-16,7.91-41.27-12.65-46.61,5.66,18.79,5.41,35.77,0,54.54,1.6,1.56,11.16-6.01,12.64-7.94Z"/>
  <path class="cls-1" d="M230.67,503.77c-50.78-39.01-39.77-120.71,18.01-146.7,66.13-29.73,137.28,30.3,119.58,100.41-15.29,60.56-88.03,84.36-137.59,46.29ZM334.26,484.69c54.31-55.9-12.8-146.71-81.58-110.34-17.24,9.11-23.86,19.19-14.03,38.12,8.47,16.32,20.66,11.5,32.04,22.53,3.64,3.53,8.1,9.56,8.03,14.81-4.92-2.16-6.68-7.82-10.25-11.12-7.56-6.96-15.84-6.89-24.66-10.74-5.61-2.45-17.34-11.49-22.14-9.53-11.14,4.55-5.05,34.43-1.59,43.58,8.15,21.59,34.91,43.03,58.65,42.35l-12.8-4.14c-17.1-7.53-9.8-24.21-3.42-37.12-9.28-4.78-14.14,4.8-21.9,1.21.51-9.37-8.8-13.15-6.12-23.34,1.91-2.31,11.83,10.9,14.33,11.58,5.81,1.59,16-8.37,26.06-2.58,6.68,3.85,4.49,12.94,6.05,19,3.02-1.98,1.68-3.42,1.58-5.85-.25-5.69-.17-13.36-.8-18.51-.73-5.96-6.08-9.48-2.85-14.51,2.56-3.98,6.31-4.28,9.51-1.02l-.78,5.98,4.4-1.47c.43,3.19-2.78,4.9-2.81,8.07-.04,3.92,4.29,10.93,4.31,15.52l11.77-4.44c.16-2.7-4.17-1.8-5.58-3.17-.48-.47-4.04-12.24-4.05-12.92-.02-2.82,2.62-3.91,3.08-5.92.74-3.23.23-6.62,1.02-9.31,9.98-34.1,59.16-22.48,50.56,13.69-2.15,9.06-10.63,11.2-14.87,19.06-8.45,15.64,1.18,27.85-20,40.47l-23.43,9.73c14.71-.33,32.08-9.22,42.24-19.68Z"/>
  <path class="cls-1" d="M393.77,352.47h75.95c4.63,0,24.15,9.38,28.66,12.63,55.33,39.72,34.59,156.97-38.99,156.97h-63.42l-1.89-2.21c-.04-.6,1.16-1.11,1.16-1.47v-163.7c0-.45-1.87-1.13-1.47-2.21ZM460.87,381.97c-11.22-1.32-24.65.97-36.13,0v109.13h39.08c1,0,12.68-5.04,14.51-6.13,33.26-19.77,28.95-97.52-17.46-103Z"/>
  <path class="cls-1" d="M412.2,156.33c7.08.78,17.36,4.94,22.92,9.5,23.96,19.63,21.76,70.92-8.85,83.46l-.07,2.16c.24,1.17,2.06.44,2.86,1.89,10.03,18.08,21.49,39.56,29.42,56.13,2.48,5.17,6.12,10.9,6.08,16.46h-30.97l-36.13-73.74h-29.5l-2.21,2.21v69.31l-2.21,2.21h-25.81v-169.6c23.7,1.9,51.25-2.55,74.48,0ZM403.35,184.35c-10.41-1.64-24.52,1.21-35.39,0l-2.21,2.21v44.98h43.51c.74,0,10.44-8.81,10.97-9.99,6.82-15.28,1.18-34.36-16.87-37.2Z"/>
  <path class="cls-1" d="M306.76,156.33v28.02h-77.43c-.49,0-2.24,1.95-3.69,1.47v36.13c0,.34,4.61,3.69,5.16,3.69h72.26c.46,0,.91-1.4,1.47-1.45l1.49,1.45c1.65,1.02-.75,1.68-.75,2.21v24.33h-79.64v44.24h82.59v27.28l-2.21,2.21h-108.4v-167.39l2.21-2.21h106.92Z"/>
  <path class="cls-1" d="M990.95,364.42l-7.99,27.84c-16.84-9.56-36.55-14.99-56.11-13.29-16.32,1.42-24.83,10.02-21.02,27.02,2.38,10.6,32.21,16.53,41.74,20.2,28.41,10.94,52.12,17.12,49.18,53.67-4.63,57.55-87.25,49.03-123.58,28.8l5.81-27.88c20.43,9.68,42.84,15.35,65.67,13.33,16.6-1.46,24.85-13.47,20.69-29.71-1.16-4.52-10.79-8.63-14.79-10.24-32.41-13.08-80.22-15.3-76-62.6,4.69-52.51,83.15-48.55,116.38-27.15Z"/>
  <path class="cls-1" d="M92.91,457.18v64.89h-29.5v-169.6h81.85c1.73,0,15.5,8.43,17.67,10.35,22.36,19.83,21.01,68.85-3.75,86.15-1.81,1.26-15.93,8.21-16.87,8.21h-49.41ZM92.91,429.16h42.03c.43,0,6.33-3.61,7.37-4.43,10.26-8.08,11.18-29.53,1.5-38.36-.86-.79-6.96-4.4-7.39-4.4h-43.51v47.19Z"/>
  <path class="cls-1" d="M682.22,390.22c-10.2,11.8-9.98,3.3-21.49-3.11-33.77-18.82-74.85-1.12-79.5,38.53-5.89,50.25,38.97,90.06,82.04,57.06,3.75-2.87,8.87-12.32,11.43-12.32l21.32,17.16c-15.12,31.57-53.18,41.75-85.44,33.8-55.37-13.65-73.59-81.08-50.93-129.07,24.12-51.09,95.61-55.77,134.34-19.13.45,1.03-10.04,15.11-11.76,17.1Z"/>
  <path class="cls-1" d="M708.63,522.07l-1.57-3c23.38-50.43,43.67-102.38,66.95-152.84,2.05-4.44,6.16-17.72,11.28-16.77l75.4,169.55-1.63,3.05h-28.02c-8.74-10.13-10.87-24.89-17.2-36.63l-61.86.67c-4.49,6.96-10.18,31.56-16.14,35.17-.36.22-4.33.78-5.09.78h-22.12ZM803.76,463.08l-19.19-50.14-22.1,50.14h41.29Z"/>
  <path class="cls-1" d="M169.6,156.33v25.81c0,.46,1.4.91,1.45,1.47l-1.45,1.49c-1.02,1.65-1.68-.75-2.21-.75h-71.53v45.72h73.74v28.02h-73.74v66.37c-1.45-.48-3.2,1.47-3.69,1.47h-23.6l-2.21-2.21v-167.39h103.23Z"/>
  <path class="cls-1" d="M1135.58,352.47v27.28l-2.21,2.21h-44.98v137.89l-2.21,2.21h-26.55l-2.21-2.21v-137.89h-45.72v-28.76l2.21-1.89c.6-.04,1.11,1.16,1.47,1.16h120.19Z"/>
  <path class="cls-1" d="M1019.08,156.33l43.51,60.48,47.19-60.48h30.23l-62.36,83.08c-1.09,1.27.42,2.69.42,3.19v81.85c-1.45-.48-3.2,1.47-3.69,1.47h-25.81v-88.49c0-.16-2.04.35-2.95-1.05-16.97-25.9-38.09-48.93-55.94-73.87-1.36-1.9-3.36-3.68-3.04-6.19h32.45Z"/>
  <path class="cls-1" d="M597.29,156.33v29.5c-1.59.55-3.24-1.47-3.69-1.47h-38.34c-.56,0-5.16,3.35-5.16,3.69v135.68c0,.45,1.87,1.13,1.47,2.21h-27.28l-2.21-2.21v-139.37h-40.56c-.74,0-3.1,2.33-5.16,1.47v-29.5h120.93Z"/>
  <path class="cls-1" d="M977.78,156.33v28.02h-43.51c-.34,0-3.69,4.61-3.69,5.16v136.42h-25.81l-2.21-141.58h-45.72v-28.02h120.93Z"/>
  <path class="cls-1" d="M712.32,296.43h70.79v28.02c-1.45-.48-3.2,1.47-3.69,1.47h-96.6v-169.6h27.28l2.21,2.21v137.89Z"/>
  <path class="cls-1" d="M1137.06,78.16v11.8h-407.78c-3.44-2.85-3.31-9.16,0-11.8h407.78Z"/>
  <path class="cls-1" d="M833.25,156.33v169.6h-25.81c-6.58-5.61-2.26-11.96-2.15-18.37.89-50.37-.9-100.94-.06-151.23h28.02Z"/>
  <polygon class="cls-1" points="648.91 156.33 648.91 323.72 646.69 325.93 620.88 325.93 620.88 156.33 648.91 156.33"/>
  <path class="cls-1" d="M454.23,78.16c1.12,2.89,1.98,11.8-2.21,11.8H66.37v-11.8h387.87Z"/>
  <path class="cls-1" d="M626.78,55.3l2.17-1.79,42.08-.43v11.81c-10.68-1.59-21.76-2.77-32.29.15l-.16,16.07h32.45v10.32h-32.45v17.7h32.45v11.8c-8.54-2.73-16.87.03-24.33,0-2.79-.01-5.55-1.47-8.78-1.55-1.89-.05-11.13,3.57-11.13-.67v-63.42Z"/>
  <path class="cls-1" d="M576.64,53.09v28.02h26.55v-28.02l8.92.7,1.2,64.72c-1.21,3.68-6.94,2.24-10.12,2.42v-29.5h-26.55v29.5h-11.8V53.09c4.35,1.06,7.58,2.57,11.8,0Z"/>
  <path class="cls-1" d="M340.1,356.01c14.95,10.07,28.97,31.66,35.97,48.07-9.73-.95-10.72-12.9-14.9-19.41-9.89-15.38-35.06-33.42-52.61-37.68-39.84-9.66-77.67,5.85-100.35,38.93-4.27,6.23-5.45,15.68-13.52,18.17-.61-.75,1.75-7.18,2.38-8.67,23.06-54.32,94.5-72.1,143.03-39.41Z"/>
  <path class="cls-1" d="M536.82,118.72l-2.42,1.95c-2.1-1.11-8.78,1-9.07-1.9l.48-52.49c-3.47-6.32-19.58.78-19.98-2.23l.03-10.96c16.41,1.99,33.37-.22,50.14,0v11.81c-1.62,1.59-19.18-4.44-19.18.73v53.09Z"/>
  <path class="cls-1" d="M384.29,455.14c-1.48,1.93-11.04,9.5-12.64,7.94,5.4-18.78,5.65-35.75,0-54.54,20.56,5.34,24.92,30.61,12.65,46.61Z"/>
  <path class="cls-1" d="M197.62,408.53c-5.91,19.21-4.35,36.77,0,56.03-18.79-9.88-27.15-33.05-10.88-49.98,1.49-1.56,8.96-7.8,10.89-6.05Z"/>
  <path d="M334.26,484.69c-10.16,10.46-27.53,19.34-42.24,19.68l23.43-9.73c21.17-12.62,11.55-24.83,20-40.47,4.24-7.85,12.72-10,14.87-19.06,8.59-36.17-40.59-47.79-50.56-13.69-.79,2.69-.28,6.09-1.02,9.31-.46,2-3.1,3.1-3.08,5.92,0,.69,3.56,12.45,4.05,12.92,1.41,1.37,5.74.48,5.58,3.17l-11.77,4.44c-.03-4.59-4.35-11.6-4.31-15.52.03-3.17,3.24-4.87,2.81-8.07l-4.4,1.47.78-5.98c-3.2-3.26-6.95-2.95-9.51,1.02-3.24,5.03,2.11,8.55,2.85,14.51.63,5.15.55,12.82.8,18.51.11,2.43,1.44,3.88-1.58,5.85-1.56-6.06.63-15.15-6.05-19-10.06-5.8-20.24,4.16-26.06,2.58-2.5-.68-12.42-13.9-14.33-11.58-2.69,10.19,6.62,13.97,6.12,23.34,7.75,3.59,12.62-5.99,21.9-1.21-6.38,12.91-13.68,29.59,3.42,37.12l12.8,4.14c-23.74.68-50.5-20.76-58.65-42.35-3.46-9.16-9.55-39.04,1.59-43.58,4.81-1.96,16.54,7.08,22.14,9.53,8.82,3.85,17.1,3.78,24.66,10.74,3.57,3.29,5.33,8.96,10.25,11.12.07-5.25-4.39-11.28-8.03-14.81-11.38-11.03-23.57-6.21-32.04-22.53-9.83-18.94-3.21-29.01,14.03-38.12,68.78-36.37,135.9,54.44,81.58,110.34Z"/>
  <path d="M460.87,381.97c46.41,5.48,50.72,83.23,17.46,103-1.83,1.09-13.51,6.13-14.51,6.13h-39.08v-109.13c11.48.97,24.91-1.32,36.13,0Z"/>
  <path d="M403.35,184.35c18.04,2.84,23.69,21.92,16.87,37.2-.53,1.18-10.23,9.99-10.97,9.99h-43.51v-44.98l2.21-2.21c10.88,1.21,24.99-1.64,35.39,0Z"/>
  <path d="M92.91,429.16v-47.19h43.51c.43,0,6.53,3.62,7.39,4.4,9.69,8.84,8.76,30.28-1.5,38.36-1.04.82-6.94,4.43-7.37,4.43h-42.03Z"/>
  <polygon points="803.76 463.08 762.46 463.08 784.57 412.94 803.76 463.08"/>
</svg>